<svg xmlns="http://www.w3.org/2000/svg" width="512" height="144" viewbox="0 0 512 144">
  <path d="M32+60L146.519+45.6556L128+80C128+80+103.094+89.3396+71.0943+101.34C39.0943+113.34+0+128+0+128L13.8025+104.295L122.33+71.4805L131.01+57.9885L137.884+56.26L140.318+52.1838L132.687+53.7769L25.9208+72.9183L32+60Z" opacity="1" fill="#4c566a"/>
  <path d="M52.1837+39.6977L96.5761+36.1654L97.3197+38.5757L116.03+36.9487L112.154+42.0813L49.311+48L52.1837+39.6977Z" opacity="1" fill="#4c566a"/>
  <path d="M152.807+44.8711L196.691+39.3456L194.465+43.2735L159.984+49.294L147.365+75.1673L135.159+78.2771L152.807+44.8711Z" opacity="1" fill="#4c566a"/>
  <path d="M161.753+53.3558L193.057+47.1475L201.429+61.7238L151.908+73.8396L161.753+53.3558Z" opacity="1" fill="#4c566a"/>
  <path d="M201.453+38.7943L242.554+33.6452L234.124+48L248.867+73.2785L206.837+60.1138L203.9+55.3463L210.445+56.976L206.422+50.0659L200.999+49.5949L198.634+45.3347L201.453+38.7943Z" opacity="1" fill="#4c566a"/>
  <path d="M238.815+48L247.407+33.117L264.593+33.117L273.185+48L264.593+62.883L247.407+62.883L238.815+48Z" opacity="1" fill="#4c566a"/>
  <path d="M311.337+41.0501L288.566+38.2123L285.715+35.6561L283.859+35.4572L286.787+38.0993L285.292+37.9732L282.629+35.31L280.348+35.0734L283.375+37.8484L281.934+37.7763L278.622+34.8571L269.702+33.65L278.132+48.0048L273.819+55.4003L301.022+52.9721L299.725+55.0188L271.351+59.6646L263.389+73.2834L305.419+60.1186L308.356+55.3511L301.811+56.9808L305.834+50.0707L311.258+49.5997L313.622+45.3395L311.337+41.0501Z" opacity="1" fill="#4c566a"/>
  <path d="M316.364+39.5579L359.579+44.859L362.612+50.8661L317.644+43.2324L316.364+39.5579Z" opacity="1" fill="#4c566a"/>
  <path d="M317.486+47.4432L364.116+56.9908L376.572+78.1843L310.19+61.5672L313.392+56.5227L358.791+67.8598L354.658+58.9217L315.844+50.6223L317.486+47.4432Z" opacity="1" fill="#4c566a"/>
  <path d="M366.676+45.8094L465.696+58.267L474.479+71.4941L375.654+52.9805L380.995+62.1261L414.689+74.4749L418.962+84.5165L496.259+113.322L496.325+104.393L512+128L416.688+92.4455L376.434+64L366.676+45.8094Z" opacity="1" fill="#4c566a"/>
  <path d="M417.272+70.7786L438.411+76.8689L442.347+89.4471L421.825+82.1245L417.272+70.7786Z" opacity="1" fill="#4c566a"/>
  <path d="M431.581+67.0913L440.448+69.0842L442.096+74.8091L433.493+72.6292L431.581+67.0913Z" opacity="1" fill="#4c566a"/>
  <path d="M442.931+39.6977L398.538+36.1654L397.795+38.5757L379.084+36.9487L382.96+42.0813L445.803+48L442.931+39.6977Z" opacity="1" fill="#4c566a"/>
</svg>
